<svg width="14" height="14" viewBox="0 0 14 14" fill="none" xmlns="http://www.w3.org/2000/svg">
    <path d="M10 7C10 4.51472 7.98528 2.5 5.5 2.5C3.01472 2.5 1 4.51472 1 7C1 9.48528 3.01472 11.5 5.5 11.5C7.98528 11.5 10 9.48528 10 7Z"
          fill="#F2FCF3"/>
    <path fill-rule="evenodd" clip-rule="evenodd"
          d="M11.5 8C11.2239 8 11 7.77614 11 7.5L11 1.70711L9.85355 2.85355C9.65829 3.04882 9.34171 3.04882 9.14645 2.85355C8.95118 2.65829 8.95118 2.34171 9.14645 2.14645L11.1464 0.146447C11.3417 -0.0488155 11.6583 -0.0488155 11.8536 0.146447L13.8536 2.14645C14.0488 2.34171 14.0488 2.65829 13.8536 2.85355C13.6583 3.04882 13.3417 3.04882 13.1464 2.85355L12 1.70711L12 7.5C12 7.77614 11.7761 8 11.5 8Z"
          fill="#DB3B4B"/>
    <path d="M10 7C10 9.48528 7.98528 11.5 5.5 11.5C3.01472 11.5 1 9.48528 1 7C1 4.51472 3.01472 2.5 5.5 2.5C6.61537 2.5 7.63597 2.90579 8.4222 3.5778L8.43934 3.56066C8.05008 3.1714 7.91948 2.62142 8.04756 2.12432C7.28593 1.72554 6.41931 1.5 5.5 1.5C2.46243 1.5 0 3.96243 0 7C0 10.0376 2.46243 12.5 5.5 12.5C7.91689 12.5 9.96967 10.9411 10.7077 8.7739C10.2828 8.50906 10 8.03755 10 7.5V7Z"
          fill="#208A3C"/>
    <path fill="#208A3C"
          d="M3.15333333,6 C2.26166667,6 1.42,5.69166667 0.72,5.06666667 L1.33666667,4.33333333 C1.895,4.81666667 2.46166667,5.09166667 3.17833333,5.09166667 C3.81166667,5.09166667 4.21166667,4.79166667 4.21166667,4.35833333 L4.21166667,4.34166667 C4.21166667,3.925 3.97833333,3.7 2.895,3.45 C1.65333333,3.15 0.953333333,2.78333333 0.953333333,1.70833333 L0.953333333,1.69166667 C0.953333333,0.691666667 1.78666667,2.48689958e-14 2.945,2.48689958e-14 C3.795,2.48689958e-14 4.47,0.258333333 5.06166667,0.733333333 L4.51166667,1.50833333 C3.98666667,1.11666667 3.46166667,0.908333333 2.92833333,0.908333333 C2.32833333,0.908333333 1.97833333,1.21666667 1.97833333,1.6 L1.97833333,1.61666667 C1.97833333,2.06666667 2.245,2.26666667 3.37,2.53333333 C4.60333333,2.83333333 5.23666667,3.275 5.23666667,4.24166667 L5.23666667,4.25833333 C5.23666667,5.35 4.37833333,6 3.15333333,6 Z"
          transform="translate(2.5 4)"/>
</svg>
