<svg width="16" height="16" viewBox="0 0 16 16" fill="none" xmlns="http://www.w3.org/2000/svg">
    <mask id="myMask">
        <rect width="16" height="16" x="0" y="0" fill="#FFF"/>
        <circle cx="12" cy="12" r="5" fill="black"/>
    </mask>

    <g mask="url(#myMask)">
        <path d="M4.26887 8L6.272 11.205C6.71106 11.9075 6.4975 12.8329 5.795 13.272C5.09249 13.7111 4.16707 13.4975 3.728 12.795L1.228 8.795C0.923999 8.30859 0.923999 7.69141 1.228 7.205L2.5 5.16981L4.26887 8Z"
              fill="#3574F0"/>
        <path d="M5.795 2.728C6.4975 3.16707 6.71106 4.0925 6.272 4.795L4.26887 8L2.5 5.16981L3.728 3.205C4.16707 2.5025 5.09249 2.28894 5.795 2.728Z"
              fill="#DB5C5C"/>
        <path d="M12.2311 8.00001L10.228 4.795C9.78894 4.0925 10.0025 3.16707 10.705 2.72801C11.4075 2.28894 12.3329 2.5025 12.772 3.20501L15.272 7.20501C15.576 7.69141 15.576 8.3086 15.272 8.795L14 10.8302L12.2311 8.00001Z"
              fill="#5FAD65"/>
        <path d="M10.705 13.272C10.0025 12.8329 9.78894 11.9075 10.228 11.205L12.2311 8L14 10.8302L12.772 12.795C12.3329 13.4975 11.4075 13.7111 10.705 13.272Z"
              fill="#F2C55C"/>
    </g>

    <path fill-rule="evenodd" clip-rule="evenodd"
          d="M16 12C16 9.79086 14.2091 8 12 8C9.79086 8 8 9.79086 8 12C8 14.2091 9.79086 16 12 16C14.2091 16 16 14.2091 16 12ZM10.2635 12.5C10.3098 13.3479 10.4722 14.1134 10.7131 14.7107C9.84445 14.2976 9.20577 13.4792 9.04148 12.5H10.2635ZM11.2652 12.5C11.3134 13.285 11.472 13.955 11.6787 14.4276C11.7975 14.6991 11.9146 14.8652 12 14.9529C12.0854 14.8652 12.2025 14.6991 12.3213 14.4276C12.528 13.955 12.6866 13.285 12.7348 12.5H11.2652ZM12.7348 11.5H11.2652C11.3134 10.715 11.472 10.045 11.6787 9.57239C11.7975 9.30089 11.9146 9.13483 12 9.04713C12.0854 9.13483 12.2025 9.30089 12.3213 9.57239C12.528 10.045 12.6866 10.715 12.7348 11.5ZM13.7365 12.5C13.6902 13.3479 13.5278 14.1134 13.2869 14.7107C14.1556 14.2976 14.7942 13.4792 14.9585 12.5H13.7365ZM14.9585 11.5H13.7365C13.6902 10.6521 13.5278 9.88659 13.2869 9.28925C14.1556 9.70237 14.7942 10.5208 14.9585 11.5ZM10.2635 11.5H9.04148C9.20577 10.5208 9.84445 9.70237 10.7131 9.28925C10.4722 9.88659 10.3098 10.6521 10.2635 11.5Z"
          fill="#CED0D6"/>
    <path d="M10.7132 14.7108C10.4722 14.1134 10.3098 13.3479 10.2636 12.5H9.0415C9.20579 13.4792 9.84447 14.2976 10.7132 14.7108Z"
          fill="#43454A"/>
    <path d="M11.6787 14.4276C11.472 13.9551 11.3134 13.285 11.2652 12.5H12.7348C12.6866 13.285 12.528 13.9551 12.3213 14.4276C12.2025 14.6991 12.0854 14.8652 12 14.9529C11.9146 14.8652 11.7975 14.6991 11.6787 14.4276Z"
          fill="#43454A"/>
    <path d="M11.6787 9.5724C11.472 10.045 11.3134 10.715 11.2652 11.5H12.7348C12.6866 10.715 12.528 10.045 12.3213 9.5724C12.2025 9.30089 12.0854 9.13483 12 9.04713C11.9146 9.13483 11.7975 9.30089 11.6787 9.5724Z"
          fill="#43454A"/>
    <path d="M13.2869 14.7108C13.5279 14.1134 13.6902 13.3479 13.7365 12.5H14.9585C14.7943 13.4792 14.1556 14.2976 13.2869 14.7108Z"
          fill="#43454A"/>
    <path d="M13.7365 11.5H14.9585C14.7943 10.5208 14.1556 9.70238 13.2869 9.28925C13.5279 9.88659 13.6902 10.6521 13.7365 11.5Z"
          fill="#43454A"/>
    <path d="M9.0415 11.5H10.2636C10.3098 10.6521 10.4722 9.88659 10.7132 9.28925C9.84447 9.70238 9.20579 10.5208 9.0415 11.5Z"
          fill="#43454A"/>
</svg>
