<svg width="16" height="16" viewBox="0 0 16 16" fill="none" xmlns="http://www.w3.org/2000/svg">
    <g clip-path="url(#clip0_1450_4666)">
        <mask id="mask0_1450_4666" style="mask-type:luminance" maskUnits="userSpaceOnUse" x="0" y="0" width="16" height="16">
            <path d="M16 0H0V16H16V0Z" fill="white"/>
            <rect x="8" y="6.5" width="8" height="7.5" fill="black"/>
        </mask>
        <g mask="url(#mask0_1450_4666)">
            <path d="M4.26887 7.99999L6.272 11.205C6.71106 11.9075 6.4975 12.8329 5.795 13.272C5.09249 13.7111 4.16707 13.4975 3.728 12.795L1.228 8.79499C0.924 8.30858 0.924 7.6914 1.228 7.20499L2.5 5.1698L4.26887 7.99999Z" fill="#3574F0"/>
            <path d="M5.795 2.72796C6.4975 3.16703 6.71106 4.09246 6.272 4.79496L4.26887 7.99996L2.5 5.16977L3.728 3.20496C4.16707 2.50246 5.09249 2.2889 5.795 2.72796Z" fill="#DB3B4B"/>
            <path d="M12.2313 7.99996L10.2282 4.79495C9.78914 4.09245 10.0027 3.16702 10.7052 2.72796C11.4077 2.28889 12.3331 2.50245 12.7722 3.20496L15.2722 7.20496C15.5762 7.69136 15.5762 8.30855 15.2722 8.79495L14.0002 10.8302L12.2313 7.99996Z" fill="#208A3C"/>
            <path d="M10.7052 13.272C10.0027 12.8329 9.78914 11.9075 10.2282 11.205L12.2313 8L14.0002 10.8302L12.7722 12.795C12.3331 13.4975 11.4077 13.7111 10.7052 13.272Z" fill="#FFAF0F"/>
        </g>
        <path d="M11.164 13.777C10.9027 13.777 10.6717 13.7257 10.471 13.623C10.275 13.5203 10.1257 13.3757 10.023 13.189C9.92033 13.007 9.876 12.7877 9.89 12.531L9.96 11.467C9.974 11.2757 9.93433 11.131 9.841 11.033C9.75233 10.935 9.60067 10.886 9.386 10.886H8.553V10.081H9.386C9.60067 10.081 9.75233 10.032 9.841 9.934C9.93433 9.836 9.974 9.69367 9.96 9.507L9.89 8.408C9.876 8.156 9.92033 7.939 10.023 7.757C10.1257 7.575 10.275 7.435 10.471 7.337C10.6717 7.239 10.9027 7.19 11.164 7.19H11.647V7.995H11.29C11.122 7.995 10.989 8.03467 10.891 8.114C10.7977 8.19333 10.7557 8.31933 10.765 8.492L10.835 9.584C10.8537 9.85933 10.772 10.081 10.59 10.249C10.408 10.417 10.1537 10.501 9.827 10.501V10.452C10.149 10.452 10.401 10.5383 10.583 10.711C10.7697 10.879 10.8537 11.103 10.835 11.383L10.765 12.475C10.7603 12.629 10.8047 12.7503 10.898 12.839C10.996 12.923 11.1267 12.965 11.29 12.965H11.647V13.777H11.164ZM12.7503 13.777V12.965H13.1073C13.2706 12.965 13.4013 12.923 13.4993 12.839C13.5973 12.7503 13.6416 12.629 13.6323 12.475L13.5623 11.383C13.5436 11.103 13.6253 10.879 13.8073 10.711C13.9939 10.5383 14.2483 10.452 14.5703 10.452V10.501C14.2483 10.501 13.9939 10.417 13.8073 10.249C13.6253 10.081 13.5436 9.85933 13.5623 9.584L13.6323 8.492C13.6416 8.31933 13.5973 8.19333 13.4993 8.114C13.4059 8.03467 13.2753 7.995 13.1073 7.995H12.7503V7.19H13.2333C13.4946 7.19 13.7233 7.239 13.9193 7.337C14.1199 7.435 14.2716 7.575 14.3743 7.757C14.4769 7.939 14.5213 8.156 14.5073 8.408L14.4373 9.507C14.4233 9.69367 14.4629 9.836 14.5563 9.934C14.6496 10.032 14.8013 10.081 15.0113 10.081H15.8443V10.886H15.0113C14.8013 10.886 14.6496 10.935 14.5563 11.033C14.4629 11.131 14.4233 11.2757 14.4373 11.467L14.5073 12.531C14.5213 12.7877 14.4769 13.007 14.3743 13.189C14.2716 13.3757 14.1199 13.5203 13.9193 13.623C13.7233 13.7257 13.4946 13.777 13.2333 13.777H12.7503Z" fill="#6C707E"/>
    </g>
    <defs>
        <clipPath id="clip0_1450_4666">
            <rect width="16" height="16" fill="white"/>
        </clipPath>
    </defs>
</svg>
