<svg width="12" height="12" viewBox="0 0 12 12" fill="none" xmlns="http://www.w3.org/2000/svg">
    <mask id="myMask">
        <rect width="12" height="12" x="0" y="0" fill="#FFF"/>
        <circle cx="8" cy="8" r="4.5" fill="black"/>
    </mask>

    <g mask="url(#myMask)">
        <path d="M2.65596 5.96957L4.2835 8.57364C4.64024 9.14442 4.46672 9.8963 3.89594 10.2531C3.32515 10.6098 2.57324 10.4363 2.2165 9.86551L0.185251 6.61551C-0.0617502 6.2203 -0.0617502 5.71884 0.185251 5.32364L1.21875 3.67004L2.65596 5.96957Z" fill="#3574F0"/>
        <path d="M3.89594 1.68541C4.46672 2.04216 4.64024 2.79407 4.2835 3.36485L2.65596 5.96891L1.21875 3.66938L2.2165 2.07297C2.57324 1.50219 3.32515 1.32868 3.89594 1.68541Z" fill="#DB3B4B"/>
        <path d="M9.31293 5.96892L7.68541 3.36485C7.32868 2.79407 7.50219 2.04215 8.07297 1.68542C8.64376 1.32867 9.39564 1.50219 9.75241 2.07298L11.7837 5.32298C12.0307 5.71818 12.0307 6.21965 11.7837 6.61485L10.7502 8.26845L9.31293 5.96892Z" fill="#208A3C"/>
        <path d="M8.07297 10.2535C7.50219 9.8967 7.32868 9.14481 7.68541 8.57403L9.31293 5.96997L10.7502 8.26951L9.75241 9.86591C9.39564 10.4367 8.64376 10.6102 8.07297 10.2535Z" fill="#FFAF0F"/>
    </g>
    <path fill-rule="evenodd" clip-rule="evenodd"
          d="M12 8C12 5.79086 10.2091 4 8 4C5.79086 4 4 5.79086 4 8C4 10.2091 5.79086 12 8 12C10.2091 12 12 10.2091 12 8ZM6.26354 8.5C6.3098 9.34792 6.47216 10.1134 6.71313 10.7107C5.84445 10.2976 5.20577 9.47924 5.04148 8.5H6.26354ZM7.2652 8.5C7.3134 9.285 7.47198 9.95505 7.67872 10.4276C7.7975 10.6991 7.91458 10.8652 8 10.9529C8.08542 10.8652 8.2025 10.6991 8.32128 10.4276C8.52802 9.95505 8.6866 9.285 8.7348 8.5H7.2652ZM8.7348 7.5H7.2652C7.3134 6.715 7.47198 6.04495 7.67872 5.57239C7.7975 5.30089 7.91458 5.13483 8 5.04713C8.08542 5.13483 8.2025 5.30089 8.32128 5.57239C8.52802 6.04495 8.6866 6.715 8.7348 7.5ZM9.73646 8.5C9.6902 9.34792 9.52784 10.1134 9.28687 10.7107C10.1556 10.2976 10.7942 9.47924 10.9585 8.5H9.73646ZM10.9585 7.5H9.73646C9.6902 6.65208 9.52784 5.88659 9.28687 5.28925C10.1556 5.70237 10.7942 6.52076 10.9585 7.5ZM6.26354 7.5H5.04148C5.20577 6.52076 5.84445 5.70237 6.71313 5.28925C6.47216 5.88659 6.3098 6.65208 6.26354 7.5Z"
          fill="#6C707E"/>
    <path d="M6.71315 10.7107C6.47219 10.1134 6.30982 9.34792 6.26356 8.5H5.0415C5.20579 9.47924 5.84447 10.2976 6.71315 10.7107Z"
          fill="#EBECF0"/>
    <path d="M7.67875 10.4276C7.472 9.95505 7.31343 9.285 7.26522 8.5H8.73483C8.68662 9.285 8.52805 9.95505 8.3213 10.4276C8.20252 10.6991 8.08545 10.8652 8.00002 10.9529C7.9146 10.8652 7.79753 10.6991 7.67875 10.4276Z"
          fill="#EBECF0"/>
    <path d="M7.67875 5.57239C7.472 6.04495 7.31343 6.715 7.26522 7.5H8.73483C8.68662 6.715 8.52805 6.04495 8.3213 5.57239C8.20252 5.30089 8.08545 5.13483 8.00002 5.04713C7.9146 5.13483 7.79753 5.30089 7.67875 5.57239Z"
          fill="#EBECF0"/>
    <path d="M9.2869 10.7107C9.52786 10.1134 9.69023 9.34792 9.73649 8.5H10.9585C10.7943 9.47924 10.1556 10.2976 9.2869 10.7107Z"
          fill="#EBECF0"/>
    <path d="M9.73649 7.5H10.9585C10.7943 6.52076 10.1556 5.70237 9.2869 5.28925C9.52786 5.88659 9.69023 6.65208 9.73649 7.5Z"
          fill="#EBECF0"/>
    <path d="M5.0415 7.5H6.26356C6.30982 6.65208 6.47219 5.88659 6.71315 5.28925C5.84447 5.70237 5.20579 6.52076 5.0415 7.5Z"
          fill="#EBECF0"/>
</svg>
