<svg width="16" height="16" viewBox="0 0 16 16" fill="none" xmlns="http://www.w3.org/2000/svg">
    <mask id="mask0_312_2" style="mask-type:alpha" maskUnits="userSpaceOnUse" x="0" y="0" width="16" height="16">
        <path d="M16 0H0V16H16V0Z" fill="white"/>
        <rect x="10" y="9" width="7" height="7" fill="black"/>
    </mask>
    <g mask="url(#mask0_312_2)">
        <path d="M8 14.5C11.5899 14.5 14.5 11.5899 14.5 8C14.5 4.41015 11.5899 1.5 8 1.5C4.41015 1.5 1.5 4.41015 1.5 8C1.5 11.5899 4.41015 14.5 8 14.5Z"
              fill="#FFF5F5" stroke="#E35252"/>
        <path d="M7 8V6H8.537C9.303 6 10 6.3126 10 6.9536C10 7.5946 9.285 8 8.547 8H7ZM9.36 8.8276C10.175 8.5896 11 8.10947 11 6.9126C11 5.71574 9.94885 4.9996 8.622 4.9996H6V10.9996H7V9H7.5H8.328L9.773 10.9996H11L9.36 8.8276Z"
              fill="#E35252"/>
    </g>
    <g transform="translate(0.5, 0.5)">
        <path d="M10.5 15H10C10 15.2761 10.2239 15.5 10.5 15.5V15ZM13.5 15.5C13.7761 15.5 14 15.2761 14 15C14 14.7239 13.7761 14.5 13.5 14.5V15.5ZM11 12C11 11.7239 10.7761 11.5 10.5 11.5C10.2239 11.5 10 11.7239 10 12H11ZM10.5 15.5H13.5V14.5H10.5V15.5ZM11 15V12H10V15H11Z"
              fill="#5FB865"/>
        <path d="M15.3536 10.8536C15.5488 10.6583 15.5488 10.3417 15.3536 10.1464C15.1583 9.95121 14.8417 9.95121 14.6464 10.1464L15.3536 10.8536ZM14.6464 10.1464L10.1464 14.6464L10.8536 15.3536L15.3536 10.8536L14.6464 10.1464Z"
              fill="#5FB865"/>
    </g>
</svg>