<svg xmlns="http://www.w3.org/2000/svg" width="16" height="16" viewBox="0 0 16 16">
    <mask id="myMask">
        <rect width="16" height="16" x="0" y="0" fill="#FFF"/>
        <rect x="9" y="9" width="7" height="7" fill="black"/>
    </mask>
    <g mask="url(#myMask)">
        <circle cx="8" cy="8" r="6.5" fill="#FFF5F5" stroke="#E35252"/>
        <path fill="#E35252"
              d="M1,3 L1,1 L2.537,1 C3.303,1 4,1.3126 4,1.9536 C4,2.5946 3.285,3 2.547,3 L1,3 Z M3.36,3.8276 C4.175,3.5896 5,3.10946655 5,1.9126 C5,0.715733447 3.94885254,-0.0004 2.622,-0.0004 L0,-0.0004 L0,5.9996 L1,5.9996 L1,4 L1.5,4 L2.328,4 L3.773,5.9996 L5,5.9996 L3.36,3.8276 Z"
              transform="translate(6 5) scale(1)"/>

    </g>
    <g transform="translate(10, 10)">
        <path d="M1 5.5L0.5 5.5C0.5 5.7761 0.7239 6 1 6L1 5.5ZM4 6C4.2761 6 4.5 5.7761 4.5 5.5C4.5 5.2239 4.2761 5 4 5L4 6ZM1.5 2.5C1.5 2.2239 1.2761 2 1 2C0.7239 2 0.5 2.2239 0.5 2.5L1.5 2.5ZM1 6L4 6L4 5L1 5L1 6ZM1.5 5.5L1.5 2.5L0.5 2.5L0.5 5.5L1.5 5.5Z"
              fill="#6C707E"/>
        <path d="M5.5 1H6C6 0.7239 5.7761 0.5 5.5 0.5V1ZM2.5 0.5C2.2239 0.5 2 0.7239 2 1C2 1.2761 2.2239 1.5 2.5 1.5V0.5ZM5 4C5 4.2761 5.2239 4.5 5.5 4.5C5.7761 4.5 6 4.2761 6 4H5ZM5.5 0.5H2.5V1.5H5.5V0.5ZM5 1V4H6V1H5Z"
              fill="#6C707E"/>
        <path d="M0.6464 5.14639C0.4512 5.34169 0.4512 5.65829 0.6464 5.85359C0.8417 6.04879 1.1583 6.04879 1.3536 5.85359L0.6464 5.14639ZM1.3536 5.85359L5.8536 1.35359L5.1464 0.646393L0.6464 5.14639L1.3536 5.85359Z"
              fill="#6C707E"/>
    </g>
</svg>