<svg width="16" height="16" viewBox="0 0 16 16" fill="none" xmlns="http://www.w3.org/2000/svg">
    <mask id="mask0_312_2" style="mask-type:alpha" maskUnits="userSpaceOnUse" x="0" y="0" width="16" height="16">
        <path d="M16 0H0V16H16V0Z" fill="white"/>
        <rect x="10" y="9" width="7" height="7" fill="black"/>
    </mask>
    <g mask="url(#mask0_312_2)">
        <circle cx="8" cy="8" r="6.5" fill="#402929" stroke="#E35252"/>
        <path fill="#E35252"
              d="M1,3 L1,1 L2.537,1 C3.303,1 4,1.3126 4,1.9536 C4,2.5946 3.285,3 2.547,3 L1,3 Z M3.36,3.8276 C4.175,3.5896 5,3.10946655 5,1.9126 C5,0.715733447 3.94885254,-0.0004 2.622,-0.0004 L0,-0.0004 L0,5.9996 L1,5.9996 L1,4 L1.5,4 L2.328,4 L3.773,5.9996 L5,5.9996 L3.36,3.8276 Z"
              transform="translate(6 5) scale(1)"/>

    </g>
    <g transform="translate(0.5, 0.5)">
        <path d="M10.5 15H10C10 15.2761 10.2239 15.5 10.5 15.5V15ZM13.5 15.5C13.7761 15.5 14 15.2761 14 15C14 14.7239 13.7761 14.5 13.5 14.5V15.5ZM11 12C11 11.7239 10.7761 11.5 10.5 11.5C10.2239 11.5 10 11.7239 10 12H11ZM10.5 15.5H13.5V14.5H10.5V15.5ZM11 15V12H10V15H11Z"
              fill="#5FB865"/>
        <path d="M15.3536 10.8536C15.5488 10.6583 15.5488 10.3417 15.3536 10.1464C15.1583 9.95121 14.8417 9.95121 14.6464 10.1464L15.3536 10.8536ZM14.6464 10.1464L10.1464 14.6464L10.8536 15.3536L15.3536 10.8536L14.6464 10.1464Z"
              fill="#5FB865"/>
    </g>
</svg>