<svg xmlns="http://www.w3.org/2000/svg" width="16" height="16" viewBox="0 0 16 16">
    <mask id="myMask">
        <rect width="16" height="16" x="0" y="0" fill="#FFF"/>
        <path fill='#000'
              d='M11,9L9.5,16L16,16L16,9Z'/>
    </mask>
    <g mask="url(#myMask)">
        <circle cx="8" cy="8" r="6.5" fill="#402929" stroke="#E35252"/>
        <path fill="#E35252"
              d="M1,3 L1,1 L2.537,1 C3.303,1 4,1.3126 4,1.9536 C4,2.5946 3.285,3 2.547,3 L1,3 Z M3.36,3.8276 C4.175,3.5896 5,3.10946655 5,1.9126 C5,0.715733447 3.94885254,-0.0004 2.622,-0.0004 L0,-0.0004 L0,5.9996 L1,5.9996 L1,4 L1.5,4 L2.328,4 L3.773,5.9996 L5,5.9996 L3.36,3.8276 Z"
              transform="translate(6 5) scale(1)"/>

    </g>
    <path d="M15.5 11H16C16 10.7239 15.7761 10.5 15.5 10.5V11ZM12.5 10.5C12.2239 10.5 12 10.7239 12 11C12 11.2761 12.2239 11.5 12.5 11.5V10.5ZM15 14C15 14.2761 15.2239 14.5 15.5 14.5C15.7761 14.5 16 14.2761 16 14H15ZM15.5 10.5H12.5V11.5H15.5V10.5ZM15 11V14H16V11H15Z"
          fill="#E35252"/>
    <path d="M10.6464 15.1464C10.4512 15.3417 10.4512 15.6583 10.6464 15.8536C10.8417 16.0488 11.1583 16.0488 11.3536 15.8536L10.6464 15.1464ZM11.3536 15.8536L15.8536 11.3536L15.1464 10.6464L10.6464 15.1464L11.3536 15.8536Z"
          fill="#E35252"/>
</svg>