<svg width="40" height="40" xmlns="http://www.w3.org/2000/svg" viewBox="0 -2 16 16">
    <path d="M4.26887 8L6.272 11.205C6.71106 11.9075 6.4975 12.8329 5.795 13.272C5.09249 13.7111 4.16707 13.4975 3.728 12.795L1.228 8.795C0.923999 8.30859 0.923999 7.69141 1.228 7.205L2.5 5.16981L4.26887 8Z"
          fill="#3574F0"/>
    <path d="M5.795 2.728C6.4975 3.16707 6.71106 4.0925 6.272 4.795L4.26887 8L2.5 5.16981L3.728 3.205C4.16707 2.5025 5.09249 2.28894 5.795 2.728Z"
          fill="#DB3B4B"/>
    <path d="M12.2311 8.00001L10.228 4.795C9.78894 4.0925 10.0025 3.16707 10.705 2.72801C11.4075 2.28894 12.3329 2.5025 12.772 3.20501L15.272 7.20501C15.576 7.69141 15.576 8.3086 15.272 8.795L14 10.8302L12.2311 8.00001Z"
          fill="#208A3C"/>
    <path d="M10.705 13.272C10.0025 12.8329 9.78894 11.9075 10.228 11.205L12.2311 8L14 10.8302L12.772 12.795C12.3329 13.4975 11.4075 13.7111 10.705 13.272Z"
          fill="#FFAF0F"/>
</svg>