<!-- Copyright 2000-2021 JetBrains s.r.o. and contributors. Use of this source code is governed by the Apache 2.0 license that can be found in the LICENSE file. -->
<svg xmlns="http://www.w3.org/2000/svg" width="16" height="16" viewBox="0 0 16 16">
  <g fill="none" fill-rule="evenodd">
    <rect width="2" height="9" x="4" y="2" fill="#AFB1B3"/>
    <polygon fill="#AFB1B3" points="5 10 9 14 1 14" transform="matrix(1 0 0 -1 0 24)"/>
    <g fill="#AFB1B3" transform="translate(8 -1) scale(1.5)">
      <path transform="translate(0 -4.5)" d="M1.54488 10H4.31488V9.21H2.86988L3.46988 8.79C3.98988 8.415 4.27988 8.125 4.27988 7.565V7.555C4.27988 6.895 3.75488 6.44 2.98988 6.44C2.31488 6.44 1.93988 6.705 1.56488 7.19L2.21988 7.735C2.49488 7.42 2.67988 7.28 2.91488 7.28C3.15488 7.28 3.30988 7.415 3.30988 7.64C3.30988 7.85 3.17988 8.015 2.85488 8.27L1.54488 9.27V10Z"/>
      <path transform="translate(0 -4.5)" d="M2.97453 14.57C3.75453 14.57 4.32453 14.115 4.32453 13.405V13.395C4.32453 12.795 3.91953 12.52 3.41953 12.41L4.25453 11.69V11H1.72953V11.785H3.06453L2.26453 12.51L2.39953 13.015H2.80953C3.17953 13.015 3.37953 13.15 3.37953 13.375V13.385C3.37953 13.6 3.20953 13.74 2.93453 13.74C2.60953 13.74 2.34953 13.595 2.09953 13.34L1.48453 13.95C1.82953 14.325 2.29953 14.57 2.97453 14.57Z"/>
    </g>
  </g>
</svg>
