<!-- Copyright 2000-2021 JetBrains s.r.o. and contributors. Use of this source code is governed by the Apache 2.0 license that can be found in the LICENSE file. -->
<svg xmlns="http://www.w3.org/2000/svg" width="16" height="16" viewBox="0 0 16 16">
  <g fill="none" fill-rule="evenodd">
    <rect width="2" height="9" x="4" y="2" fill="#6E6E6E"/>
    <polygon fill="#6E6E6E" points="5 10 9 14 1 14" transform="matrix(1 0 0 -1 0 24)"/>
    <g fill="#6E6E6E" transform="translate(8 -1) scale(1.5)">
      <path d="M2.70563 5.5H3.66063V1.975H2.95563L1.93063 2.265L2.11563 3.015L2.70563 2.875V5.5Z"/>
      <path d="M1.54488 10H4.31488V9.21H2.86988L3.46988 8.79C3.98988 8.415 4.27988 8.125 4.27988 7.565V7.555C4.27988 6.895 3.75488 6.44 2.98988 6.44C2.31488 6.44 1.93988 6.705 1.56488 7.19L2.21988 7.735C2.49488 7.42 2.67988 7.28 2.91488 7.28C3.15488 7.28 3.30988 7.415 3.30988 7.64C3.30988 7.85 3.17988 8.015 2.85488 8.27L1.54488 9.27V10Z"/>
    </g>
  </g>
</svg>
