<svg xmlns="http://www.w3.org/2000/svg" width="16" height="16" viewBox="0 0 16 16">
    <g fill="none" fill-rule="evenodd">
        <path fill-rule="evenodd" clip-rule="evenodd"
              d="M8 13.6C11.0928 13.6 13.6 11.0928 13.6 8C13.6 4.9072 11.0928 2.4 8 2.4C4.9072 2.4 2.4 4.9072 2.4 8C2.4 11.0928 4.9072 13.6 8 13.6ZM8 15C11.866 15 15 11.866 15 8C15 4.134 11.866 1 8 1C4.134 1 1 4.134 1 8C1 11.866 4.134 15 8 15Z"
              fill="#9AA7B0" fill-opacity="0.8"/>
        <path fill-rule="evenodd" clip-rule="evenodd" d="M10 11H6V5H10V6H7V7H9V8H7V10H10V11Z" fill="#231F20"
              fill-opacity="0.7"/>
    </g>
</svg>