<!-- Copyright 2000-2021 JetBrains s.r.o. Use of this source code is governed by the Apache 2.0 license that can be found in the LICENSE file. -->
<svg xmlns="http://www.w3.org/2000/svg" width="12" height="12" viewBox="0 0 12 12">
  <g fill="none" fill-rule="evenodd">
    <circle cx="4" cy="6" r="4" fill="#62B543" fill-opacity=".7"/>
    <path fill="#AFB1B3" d="M10,9 L12,9 L9.5,12 L7,9 L9,9 L9,0 L10,0 L10,9 Z"/>
    <path d="M5.06738 6.81055C5.06738 7.19727 4.92773 7.50195 4.64844 7.72461C4.37109 7.94727 3.98438 8.05859 3.48828 8.05859C3.03125 8.05859 2.62695 7.97266 2.27539 7.80078V6.95703C2.56445 7.08594 2.80859 7.17676 3.00781 7.22949C3.20898 7.28223 3.39258 7.30859 3.55859 7.30859C3.75781 7.30859 3.91016 7.27051 4.01562 7.19434C4.12305 7.11816 4.17676 7.00488 4.17676 6.85449C4.17676 6.77051 4.15332 6.69629 4.10645 6.63184C4.05957 6.56543 3.99023 6.50195 3.89844 6.44141C3.80859 6.38086 3.62402 6.28418 3.34473 6.15137C3.08301 6.02832 2.88672 5.91016 2.75586 5.79688C2.625 5.68359 2.52051 5.55176 2.44238 5.40137C2.36426 5.25098 2.3252 5.0752 2.3252 4.87402C2.3252 4.49512 2.45312 4.19727 2.70898 3.98047C2.9668 3.76367 3.32227 3.65527 3.77539 3.65527C3.99805 3.65527 4.20996 3.68164 4.41113 3.73438C4.61426 3.78711 4.82617 3.86133 5.04688 3.95703L4.75391 4.66309C4.52539 4.56934 4.33594 4.50391 4.18555 4.4668C4.03711 4.42969 3.89062 4.41113 3.74609 4.41113C3.57422 4.41113 3.44238 4.45117 3.35059 4.53125C3.25879 4.61133 3.21289 4.71582 3.21289 4.84473C3.21289 4.9248 3.23145 4.99512 3.26855 5.05566C3.30566 5.11426 3.36426 5.17188 3.44434 5.22852C3.52637 5.2832 3.71875 5.38281 4.02148 5.52734C4.42188 5.71875 4.69629 5.91113 4.84473 6.10449C4.99316 6.2959 5.06738 6.53125 5.06738 6.81055Z" fill="#231F20" fill-opacity="0.7"/>
  </g>
</svg>
