<!-- Copyright 2000-2021 JetBrains s.r.o. Use of this source code is governed by the Apache 2.0 license that can be found in the LICENSE file. -->
<svg xmlns="http://www.w3.org/2000/svg" width="12" height="12" viewBox="0 0 12 12">
    <g fill="none" fill-rule="evenodd">
        <circle cx="4" cy="6" r="4" fill="#F98B9E" fill-opacity=".6"/>
        <path fill="#C75450" d="M10,9 L12,9 L9.5,12 L7,9 L9,9 L9,0 L10,0 L10,9 Z" transform="matrix(1 0 0 -1 0 12)"/>
        <path d="M3.44727 5.61816H3.74023C4.02734 5.61816 4.23926 5.57031 4.37598 5.47461C4.5127 5.37891 4.58105 5.22852 4.58105 5.02344C4.58105 4.82031 4.51074 4.67578 4.37012 4.58984C4.23145 4.50391 4.01562 4.46094 3.72266 4.46094H3.44727V5.61816ZM3.44727 6.35645V8H2.53906V3.7168H3.78711C4.36914 3.7168 4.7998 3.82324 5.0791 4.03613C5.3584 4.24707 5.49805 4.56836 5.49805 5C5.49805 5.25195 5.42871 5.47656 5.29004 5.67383C5.15137 5.86914 4.95508 6.02246 4.70117 6.13379C5.3457 7.09668 5.76562 7.71875 5.96094 8H4.95312L3.93066 6.35645H3.44727Z"
              fill="#231F20" fill-opacity="0.7"/>
    </g>
</svg>
