<svg width="16" height="16" viewBox="0 0 16 16" fill="none" xmlns="http://www.w3.org/2000/svg">
<g clip-path="url(#clip0)">
<path fill-rule="evenodd" clip-rule="evenodd" d="M10.98 6.99195C9.484 6.99195 8.5 5.73595 8.5 4.11195V4.09595C8.5 2.47195 9.508 1.19995 10.996 1.19995C12.476 1.19995 13.476 2.45595 13.476 4.07995V4.09595C13.476 5.71995 12.476 6.99195 10.98 6.99195ZM11.002 5.87995C11.746 5.87995 12.218 5.12795 12.218 4.11195V4.09595C12.218 3.07995 11.722 2.31195 10.986 2.31195C10.25 2.31195 9.76999 3.05595 9.76999 4.07995V4.09595C9.76999 5.11995 10.258 5.87995 11.002 5.87995ZM4.98 14.7919C3.484 14.7919 2.5 13.5359 2.5 11.9119V11.8959C2.5 10.2719 3.508 8.99994 4.996 8.99994C5.62692 8.99994 6.17061 9.22818 6.58678 9.61588L6.31711 10.069L5.92861 10.7028C5.71146 10.3362 5.38378 10.1119 4.98599 10.1119C4.24999 10.1119 3.76999 10.8559 3.76999 11.8799V11.8959C3.76999 12.9199 4.25799 13.6799 5.00199 13.6799C5.17516 13.6799 5.33359 13.6392 5.47477 13.5638L6.06339 14.537C5.74408 14.7011 5.37975 14.7919 4.98 14.7919ZM11.2552 14.6406H10.7067L10.1796 13.7406H10.6419V10.4683L10.9803 9.89167L11.8579 11.3901V13.6137L11.2552 14.6406ZM7.21151 10.5215C7.38292 10.9232 7.476 11.3844 7.476 11.8799V11.8959C7.476 12.6755 7.24557 13.3739 6.84046 13.8895L6.11305 12.6869C6.16101 12.5252 6.19324 12.3485 6.20827 12.1602L6.5485 11.6051L6.58049 11.5529L7.1731 10.586L7.21151 10.5215ZM10.201 9.24379L9.75723 10L9.60701 10.256L9.40991 9.47994L10.201 9.24379ZM9.40991 14.4051V14.6406H9.54782L9.40991 14.4051ZM11.8579 9V9.41142L11.6169 9H11.8579ZM12.9099 13.7968V14.6406H12.4147L12.9099 13.7968ZM4.64191 6.09198V2.59932L3.66591 2.83932L3.40991 1.83132L5.01791 1.35132H5.85791V6.09198H6.90991V6.99198H3.40991V6.09198H4.64191Z" fill="#6E6E6E"/>
<path fill-rule="evenodd" clip-rule="evenodd" d="M8.1171 9L7.1731 10.586L8.1721 12.701L10.3441 9H8.1171Z" fill="#F26522"/>
<path fill-rule="evenodd" clip-rule="evenodd" d="M6 12.5L8.117 16H10.344L7.173 10.586L6 12.5Z" fill="#40B6E0"/>
<path fill-rule="evenodd" clip-rule="evenodd" d="M13.8439 16L14.7879 14.414L13.7889 12.299L11.6169 16H13.8439Z" fill="#F4AF3D"/>
<path fill-rule="evenodd" clip-rule="evenodd" d="M15.9609 12.5L13.8439 9H11.6169L14.7879 14.414L15.9609 12.5Z" fill="#62B543"/>
</g>
</svg>
