<svg width="16" height="16" xmlns="http://www.w3.org/2000/svg">
    <g fill-rule="evenodd">
        <path fill="#9AA7B0" d="M7 1L3 5h4z"/>
        <path fill="#9AA7B0"
              d="M13 1v6.999L7.205 8 5.97 10.074l-1.485 2.423L5.999 15H3V6h5V1h5zm-3 8l-2.052 3.496L9.414 15H7.168l-1.512-2.5 1.173-1.914L7.773 9H10zm.636.891l1.529 2.611L10.699 15h-.126l-1.466-2.503 1.529-2.606zM13 13.054V15h-1.141L13 13.054zm0-4.055v2.95L11.273 9 13 8.999z"/>
        <path fill="#F26522" d="M7.773 9l-.944 1.586.999 2.115L10 9z"/>
        <path fill="#40B6E0" d="M5.656 12.5L7.773 16H10l-3.171-5.414z"/>
        <path fill="#F4AF3D" d="M13.5 16l.944-1.586-.999-2.115L11.273 16z"/>
        <path fill="#62B543" d="M15.617 12.5L13.5 9h-2.227l3.171 5.414z"/>
    </g>
</svg>