<svg xmlns="http://www.w3.org/2000/svg" width="16" height="16" viewBox="0 0 16 16">
    <mask id="myMask">
        <rect width="16" height="16" x="0" y="0" fill="#FFF"/>
        <path fill='#000'
              d='M12.914099999999998,0L11.0001,0L11.0001,2L8.0001,2L8.0001,5L11.0001,5L11.0001,7L12.914099999999998,7L16.000100000000003,3.9139999999999873L16.000100000000003,3.0860000000000127L12.914099999999998,0Z'/>
    </mask>
    <g fill="none" fill-rule="evenodd" mask="url(#myMask)">
        <path fill="#F98B9E" fill-opacity=".6"
              d="M15,8 C15,11.866 11.866,15 8,15 C4.134,15 1,11.866 1,8 C1,4.134 4.134,1 8,1 C11.866,1 15,4.134 15,8"/>
        <path fill="#231F20" fill-opacity=".7"
              d="M1,3 L1,1 L2.537,1 C3.303,1 4,1.3126 4,1.9536 C4,2.5946 3.285,3 2.547,3 L1,3 Z M3.36,3.8276 C4.175,3.5896 5,3.10946655 5,1.9126 C5,0.715733447 3.94885254,-0.0004 2.622,-0.0004 L0,-0.0004 L0,5.9996 L1,5.9996 L1,4 L1.5,4 L2.328,4 L3.773,5.9996 L5,5.9996 L3.36,3.8276 Z"
              transform="translate(6 5)"/>
    </g>
    <g>
        <path fill-rule='evenodd' d='M12.5,1L12,1L12,2L13,3L9,3L9,4L13,4L12,5L12,6L12.5,6L15,3.5L12.5,1Z' fill='#62B543'
              opacity="0.7"/>
    </g>
</svg>